<?xml version="1.0" encoding="UTF-8" standalone="no"?>
<!DOCTYPE svg PUBLIC "-//W3C//DTD SVG 1.1//EN" "http://www.w3.org/Graphics/SVG/1.1/DTD/svg11.dtd">
<svg xmlns="http://www.w3.org/2000/svg" version="1.1" viewBox="0.00 0.00 512.00 512.00">
<g stroke-width="2.00" fill="none" stroke-linecap="butt">
<path stroke="#805000" vector-effect="non-scaling-stroke" d="
  M 361.06 38.81
  C 295.34 7.09 216.51 6.84 150.90 39.35
  C 144.07 42.74 144.53 47.05 148.09 53.18
  Q 151.70 59.41 155.23 65.56
  A 0.45 0.45 0.0 0 0 155.88 65.70
  C 163.67 59.92 172.45 53.85 181.10 50.63
  C 191.50 46.75 203.00 46.16 214.01 45.23
  C 224.93 44.31 238.66 38.73 250.75 37.50
  C 267.30 35.80 281.47 42.86 298.29 45.02
  C 311.02 46.65 323.11 46.70 335.09 51.92
  C 342.42 55.10 350.26 60.66 357.22 65.67
  A 0.42 0.42 0.0 0 0 357.83 65.54
  Q 361.80 58.69 365.76 51.78
  C 369.40 45.43 367.40 41.87 361.06 38.81"
/>
<path stroke="#805a00" vector-effect="non-scaling-stroke" d="
  M 199.67 157.61
  C 193.68 160.29 190.83 157.22 187.89 152.11
  Q 169.10 119.53 150.27 86.96
  Q 150.01 86.51 149.55 86.73
  L 134.54 93.98"
/>
<path stroke="#807041" vector-effect="non-scaling-stroke" d="
  M 134.54 93.98
  Q 124.27 99.24 117.24 109.00
  C 111.22 117.36 105.46 125.68 98.33 133.15
  C 93.09 138.64 86.57 144.64 82.70 150.06
  C 76.38 158.91 74.26 169.03 71.33 179.32
  C 68.45 189.46 64.40 198.04 59.85 207.86
  Q 53.67 221.22 55.57 236.04"
/>
<path stroke="#805a00" vector-effect="non-scaling-stroke" d="
  M 55.57 236.04
  L 56.47 248.02
  Q 56.51 248.51 57.00 248.51
  L 242.98 248.51
  Q 243.50 248.51 243.24 248.06
  Q 225.23 216.60 207.09 185.43
  Q 203.63 179.49 209.55 174.90"
/>
<path stroke="#807041" vector-effect="non-scaling-stroke" d="
  M 209.55 174.90
  Q 214.08 172.82 217.42 175.07
  Q 219.12 176.22 221.70 180.67
  Q 228.24 192.00 235.00 203.68"
/>
<path stroke="#805a00" vector-effect="non-scaling-stroke" d="
  M 235.00 203.68
  L 256.36 240.68
  A 0.20 0.20 0.0 0 0 256.71 240.68
  L 349.86 79.35
  A 0.48 0.47 32.6 0 0 349.72 78.73
  C 339.50 71.39 329.69 63.96 316.85 62.18"
/>
<path stroke="#807041" vector-effect="non-scaling-stroke" d="
  M 316.85 62.18
  Q 312.11 61.52 299.49 60.37
  C 288.16 59.34 276.67 55.22 265.04 53.08
  C 250.14 50.32 237.37 56.21 223.04 58.95
  C 215.80 60.33 207.54 60.85 199.74 61.58
  C 185.01 62.96 174.73 70.61 163.18 78.82
  A 0.27 0.27 0.0 0 0 163.10 79.17
  Q 182.08 112.04 200.99 144.80
  C 203.90 149.84 204.90 154.00 199.67 157.61"
/>
<path stroke="#ffca41" vector-effect="non-scaling-stroke" d="
  M 316.85 62.18
  L 312.81 69.29"
/>
<path stroke="#807041" vector-effect="non-scaling-stroke" d="
  M 312.81 69.29
  C 292.22 66.16 277.75 88.96 291.62 105.86"
/>
<path stroke="#ffca41" vector-effect="non-scaling-stroke" d="
  M 291.62 105.86
  L 264.60 152.69"
/>
<path stroke="#807041" vector-effect="non-scaling-stroke" d="
  M 264.60 152.69
  C 240.46 144.09 223.05 174.77 242.47 190.94"
/>
<path stroke="#ffca41" vector-effect="non-scaling-stroke" d="
  M 242.47 190.94
  L 235.00 203.68"
/>
<path stroke="#ffca41" vector-effect="non-scaling-stroke" d="
  M 209.55 174.90
  L 199.67 157.61"
/>
<path stroke="#ffca41" vector-effect="non-scaling-stroke" d="
  M 55.57 236.04
  L 75.12 235.84"
/>
<path stroke="#805a00" vector-effect="non-scaling-stroke" d="
  M 75.12 235.84
  Q 81.37 241.31 89.25 241.47
  Q 98.25 241.65 105.17 235.71"
/>
<path stroke="#ffca41" vector-effect="non-scaling-stroke" d="
  M 105.17 235.71
  Q 130.13 236.47 155.28 235.66"
/>
<path stroke="#805a00" vector-effect="non-scaling-stroke" d="
  M 155.28 235.66
  Q 166.06 238.43 176.91 235.53"
/>
<path stroke="#ffca41" vector-effect="non-scaling-stroke" d="
  M 176.91 235.53
  Q 190.46 237.94 198.07 227.79
  Q 203.23 220.91 201.35 211.92"
/>
<path stroke="#805a00" vector-effect="non-scaling-stroke" d="
  M 201.35 211.92
  Q 208.46 185.41 187.04 169.18
  Q 182.09 165.43 174.37 163.49"
/>
<path stroke="#ffca41" vector-effect="non-scaling-stroke" d="
  M 174.37 163.49
  L 160.90 140.08"
/>
<path stroke="#805a00" vector-effect="non-scaling-stroke" d="
  M 160.90 140.08
  Q 167.13 128.57 160.86 117.64
  Q 154.74 106.95 141.44 106.37"
/>
<path stroke="#ffca41" vector-effect="non-scaling-stroke" d="
  M 141.44 106.37
  L 134.54 93.98"
/>
<path stroke="#805a00" vector-effect="non-scaling-stroke" d="
  M 242.47 190.94
  C 253.22 199.32 268.78 196.70 275.56 185.24
  C 282.77 173.03 277.66 157.97 264.60 152.69"
/>
<path stroke="#805a00" vector-effect="non-scaling-stroke" d="
  M 291.62 105.86
  C 308.61 125.50 339.85 105.15 328.69 81.61
  Q 324.21 72.15 312.81 69.29"
/>
<path stroke="#807041" vector-effect="non-scaling-stroke" d="
  M 141.44 106.37
  Q 128.81 107.36 122.90 116.54
  C 116.90 125.86 118.22 137.95 126.61 145.42
  C 137.50 155.12 153.17 152.21 160.90 140.08"
/>
<path stroke="#807041" vector-effect="non-scaling-stroke" d="
  M 174.37 163.49
  C 127.21 155.01 110.12 219.40 155.28 235.66"
/>
<path stroke="#807041" vector-effect="non-scaling-stroke" d="
  M 105.17 235.71
  Q 114.77 225.16 111.54 213.38
  C 104.66 188.38 68.49 192.94 67.55 218.96
  Q 67.21 228.41 75.12 235.84"
/>
<path stroke="#807041" vector-effect="non-scaling-stroke" d="
  M 201.35 211.92
  Q 194.51 229.46 176.91 235.53"
/>
<path stroke="#805000" vector-effect="non-scaling-stroke" d="
  M 120.47 57.04
  C 60.23 98.77 21.71 165.08 16.16 238.34
  C 15.62 245.54 18.26 248.39 25.68 248.50
  Q 33.26 248.60 40.90 248.48
  Q 41.43 248.47 41.38 247.95
  Q 40.73 240.36 40.27 232.75
  C 39.27 216.16 45.33 203.00 52.07 188.45
  C 56.00 179.97 58.17 170.94 60.67 161.98
  Q 65.02 146.37 76.15 134.65
  C 83.32 127.11 91.31 119.71 97.20 111.19
  Q 104.41 100.75 109.68 94.44
  C 117.77 84.76 130.47 79.02 142.18 73.60
  A 0.28 0.28 0.0 0 0 142.30 73.20
  Q 138.30 66.14 134.17 59.12
  C 130.49 52.86 126.22 53.06 120.47 57.04"
/>
<path stroke="#805000" vector-effect="non-scaling-stroke" d="
  M 496.85 238.00
  C 491.20 163.89 451.76 97.24 390.43 55.56
  C 384.97 51.85 381.07 55.35 378.20 60.27
  Q 374.45 66.71 370.82 73.05
  A 0.48 0.48 0.0 0 0 371.05 73.73
  C 380.02 77.62 389.74 82.24 396.89 88.25
  C 406.98 96.75 414.51 110.22 421.02 117.98
  Q 424.01 121.54 435.65 133.11
  Q 448.15 145.52 452.86 163.45
  C 455.08 171.92 457.29 180.22 460.84 188.34
  C 467.55 203.65 473.81 215.47 472.73 232.99
  Q 472.26 240.44 471.70 247.95
  Q 471.66 248.48 472.19 248.49
  Q 480.17 248.58 488.16 248.49
  C 495.20 248.41 497.37 244.91 496.85 238.00"
/>
<path stroke="#805a00" vector-effect="non-scaling-stroke" d="
  M 276.80 235.90
  L 269.70 248.18
  A 0.23 0.22 -75.0 0 0 269.89 248.52
  Q 344.95 248.51 419.92 248.52
  Q 423.67 248.52 425.45 249.41
  C 430.10 251.74 430.39 259.34 426.29 262.03
  C 422.47 264.53 413.40 263.53 408.58 263.52"
/>
<path stroke="#807041" vector-effect="non-scaling-stroke" d="
  M 408.58 263.52
  L 365.30 263.52
  A 0.28 0.27 -90.0 0 0 365.03 263.80
  Q 364.98 283.61 365.03 303.48
  Q 365.04 308.02 365.74 309.96
  C 369.41 320.23 384.75 318.84 387.70 308.82
  C 389.07 304.16 387.70 298.62 388.76 294.11
  C 390.92 284.93 399.23 279.00 408.65 279.14"
/>
<path stroke="#805a00" vector-effect="non-scaling-stroke" d="
  M 408.65 279.14
  Q 421.68 280.97 425.62 291.61
  Q 427.07 295.50 427.04 304.07
  Q 426.98 327.66 426.95 351.25
  C 426.94 359.15 437.05 362.42 440.41 355.14
  Q 441.20 353.43 441.20 349.83
  Q 441.20 303.70 441.19 257.57
  C 441.19 247.36 448.18 248.60 455.92 248.51
  Q 456.39 248.50 456.45 248.03
  Q 458.36 232.21 457.85 225.75
  C 456.75 211.64 449.29 201.36 444.47 187.94
  C 441.77 180.43 439.96 172.70 437.68 165.05
  C 433.32 150.39 423.82 142.43 411.79 130.20
  Q 407.54 125.89 398.24 112.03
  C 389.47 98.96 378.89 93.45 364.01 87.03"
/>
<path stroke="#807041" vector-effect="non-scaling-stroke" d="
  M 364.01 87.03
  Q 363.80 86.76 363.57 86.67
  Q 363.08 86.46 362.82 86.92
  L 276.80 235.90"
/>
<path stroke="#ffca41" vector-effect="non-scaling-stroke" d="
  M 364.01 87.03
  Q 373.61 102.36 386.41 114.59
  C 395.47 123.25 401.32 131.07 404.76 143.02
  Q 408.17 154.81 411.75 166.79"
/>
<path stroke="#807041" vector-effect="non-scaling-stroke" d="
  M 411.75 166.79
  Q 392.25 160.55 376.97 171.93
  C 363.58 181.90 358.50 199.54 364.31 214.97
  Q 369.19 227.95 383.05 235.61"
/>
<path stroke="#ffca41" vector-effect="non-scaling-stroke" d="
  M 383.05 235.61
  Q 355.66 236.55 328.55 235.64"
/>
<path stroke="#807041" vector-effect="non-scaling-stroke" d="
  M 328.55 235.64
  Q 340.32 233.12 345.37 224.24
  C 354.71 207.81 340.91 188.10 322.50 191.03
  C 308.44 193.27 300.03 207.97 305.30 221.35
  Q 309.70 232.54 323.49 235.69"
/>
<path stroke="#ffca41" vector-effect="non-scaling-stroke" d="
  M 323.49 235.69
  L 276.80 235.90"
/>
<path stroke="#ffca41" vector-effect="non-scaling-stroke" d="
  M 408.65 279.14
  L 408.58 263.52"
/>
<path stroke="#805a00" vector-effect="non-scaling-stroke" d="
  M 323.49 235.69
  Q 325.89 234.93 328.55 235.64"
/>
<path stroke="#805a00" vector-effect="non-scaling-stroke" d="
  M 383.05 235.61
  Q 390.69 239.01 399.18 238.99
  C 440.54 238.88 450.61 181.44 411.75 166.79"
/>
<path stroke="#805000" vector-effect="non-scaling-stroke" d="
  M 142.10 438.36
  C 128.37 432.12 116.74 426.70 106.99 414.04
  Q 100.88 406.10 95.04 397.96
  C 89.72 390.54 82.49 384.15 76.22 377.52
  Q 64.84 365.51 60.53 349.49
  Q 59.55 345.85 56.88 336.66
  C 54.03 326.86 50.11 318.97 45.60 308.91
  C 38.90 293.96 40.04 280.05 41.37 264.07
  Q 41.41 263.55 40.89 263.54
  Q 33.38 263.45 25.88 263.52
  C 19.98 263.57 15.61 265.47 16.04 272.00
  C 20.91 346.07 60.38 413.70 121.50 455.65
  C 127.60 459.84 131.32 457.78 134.83 451.77
  Q 138.61 445.30 142.27 438.88
  A 0.37 0.37 0.0 0 0 142.10 438.36"
/>
<path stroke="#805a00" vector-effect="non-scaling-stroke" d="
  M 118.73 404.95
  Q 125.80 414.12 137.23 419.53
  Q 143.47 422.49 149.72 425.35
  Q 150.01 425.49 150.17 425.21
  L 243.17 264.14
  Q 243.50 263.57 242.84 263.56
  L 200.36 263.53"
/>
<path stroke="#807041" vector-effect="non-scaling-stroke" d="
  M 200.36 263.53
  L 57.03 263.52
  Q 56.51 263.52 56.46 264.04
  Q 55.66 272.38 55.24 280.76
  C 54.78 290.18 56.79 296.95 60.90 306.31
  C 64.02 313.45 67.56 320.54 69.83 327.76
  C 74.40 342.29 76.15 355.52 87.10 367.15
  C 94.47 374.97 102.69 382.58 108.66 391.09
  Q 115.08 400.23 118.73 404.95"
/>
<path stroke="#ffca41" vector-effect="non-scaling-stroke" d="
  M 200.36 263.53
  L 193.24 276.12"
/>
<path stroke="#807041" vector-effect="non-scaling-stroke" d="
  M 193.24 276.12
  C 180.90 261.03 156.80 266.22 153.26 285.84
  C 150.95 298.66 159.80 309.40 172.34 311.85"
/>
<path stroke="#ffca41" vector-effect="non-scaling-stroke" d="
  M 172.34 311.85
  L 165.32 324.34"
/>
<path stroke="#807041" vector-effect="non-scaling-stroke" d="
  M 165.32 324.34
  C 140.46 304.91 104.22 321.19 104.30 353.24
  C 104.33 368.84 114.22 382.31 128.74 387.94"
/>
<path stroke="#ffca41" vector-effect="non-scaling-stroke" d="
  M 128.74 387.94
  L 118.73 404.95"
/>
<path stroke="#805a00" vector-effect="non-scaling-stroke" d="
  M 128.74 387.94
  C 168.33 401.62 196.70 351.52 165.32 324.34"
/>
<path stroke="#805a00" vector-effect="non-scaling-stroke" d="
  M 172.34 311.85
  Q 179.88 312.65 186.05 309.20
  C 198.31 302.35 200.96 288.04 193.24 276.12"
/>
<path stroke="#807041" vector-effect="non-scaling-stroke" d="
  M 246.54 288.32
  L 163.19 432.69
  Q 163.00 433.03 163.32 433.26
  L 172.12 439.27"
/>
<path stroke="#805a00" vector-effect="non-scaling-stroke" d="
  M 172.12 439.27
  Q 178.25 443.78 184.97 446.83
  C 190.08 449.15 192.78 451.26 191.38 457.09"
/>
<path stroke="#805000" vector-effect="non-scaling-stroke" d="
  M 191.38 457.09
  Q 187.50 464.71 179.15 460.85
  C 170.87 457.03 163.17 451.54 155.76 446.26
  A 0.32 0.32 0.0 0 0 155.30 446.36
  Q 151.26 453.30 147.25 460.30
  C 143.65 466.58 145.71 470.14 151.95 473.16
  C 218.30 505.22 295.57 504.74 361.78 472.86
  C 368.79 469.49 368.69 465.22 364.97 458.81
  Q 361.37 452.61 357.90 446.58
  Q 357.57 446.01 357.04 446.40
  C 349.04 452.29 340.23 458.41 331.26 461.59
  C 317.10 466.61 300.35 465.24 287.99 468.73
  C 275.08 472.38 262.58 475.84 249.04 474.29
  C 240.42 473.31 228.40 469.56 218.17 467.36
  C 213.20 466.30 210.39 464.48 210.39 459.20"
/>
<path stroke="#805a00" vector-effect="non-scaling-stroke" d="
  M 210.39 459.20
  C 211.17 454.29 214.76 451.68 219.58 452.49
  C 227.82 453.86 235.93 456.05 244.04 458.08
  Q 256.90 461.29 269.71 457.84
  Q 288.52 452.77 294.23 452.21
  Q 304.12 451.26 314.00 450.25
  C 328.59 448.77 338.33 441.29 349.81 433.23
  Q 350.08 433.03 349.92 432.74
  L 256.79 271.45
  A 0.29 0.29 0.0 0 0 256.29 271.45
  L 246.54 288.32"
/>
<path stroke="#ffaa00" vector-effect="non-scaling-stroke" d="
  M 210.39 459.20
  L 191.38 457.09"
/>
<path stroke="#ffca41" vector-effect="non-scaling-stroke" d="
  M 172.12 439.27
  C 183.40 439.84 196.27 444.08 204.50 445.94
  C 218.83 449.18 232.03 445.53 246.99 441.24
  Q 254.07 439.21 270.50 438.23
  Q 281.45 437.57 291.68 433.30"
/>
<path stroke="#805a00" vector-effect="non-scaling-stroke" d="
  M 291.68 433.30
  Q 297.76 437.40 304.92 437.28
  C 320.92 437.01 331.22 421.20 325.23 406.43
  Q 320.62 395.05 306.88 392.60"
/>
<path stroke="#ffca41" vector-effect="non-scaling-stroke" d="
  M 306.88 392.60
  L 276.63 340.19"
/>
<path stroke="#805a00" vector-effect="non-scaling-stroke" d="
  M 276.63 340.19
  Q 280.89 331.15 277.41 322.32
  Q 272.38 309.58 258.01 307.97"
/>
<path stroke="#ffca41" vector-effect="non-scaling-stroke" d="
  M 258.01 307.97
  L 246.54 288.32"
/>
<path stroke="#807041" vector-effect="non-scaling-stroke" d="
  M 258.01 307.97
  C 243.65 307.42 232.38 319.24 234.50 333.65
  C 237.72 355.53 266.29 359.36 276.63 340.19"
/>
<path stroke="#807041" vector-effect="non-scaling-stroke" d="
  M 306.88 392.60
  C 283.47 392.24 273.47 418.31 291.68 433.30"
/>
<path stroke="#807041" vector-effect="non-scaling-stroke" d="
  M 265.60 99.11
  A 37.19 37.19 0.0 0 0 228.41 61.92
  A 37.19 37.19 0.0 0 0 191.22 99.11
  A 37.19 37.19 0.0 0 0 228.41 136.30
  A 37.19 37.19 0.0 0 0 265.60 99.11"
/>
<path stroke="#6a1818" vector-effect="non-scaling-stroke" d="
  M 211.70 113.82
  C 220.00 122.82 233.90 123.95 242.86 115.96
  C 255.03 105.11 252.48 86.60 238.12 79.15"
/>
<path stroke="#782a28" vector-effect="non-scaling-stroke" d="
  M 238.12 79.15
  C 226.23 73.38 212.26 79.07 207.63 91.47
  Q 203.27 103.14 211.70 113.82"
/>
<path stroke="#e14140" vector-effect="non-scaling-stroke" d="
  M 238.12 79.15
  Q 238.19 81.84 238.14 84.39
  C 237.92 97.21 230.01 107.51 218.39 112.18
  C 216.35 113.00 213.96 113.36 211.70 113.82"
/>
<path stroke="#805000" vector-effect="non-scaling-stroke" d="
  M 315.93 91.32
  A 7.34 7.34 0.0 0 0 308.59 83.98
  A 7.34 7.34 0.0 0 0 301.25 91.32
  A 7.34 7.34 0.0 0 0 308.59 98.66
  A 7.34 7.34 0.0 0 0 315.93 91.32"
/>
<path stroke="#807041" vector-effect="non-scaling-stroke" d="
  M 396.20 135.91
  A 22.34 22.34 0.0 0 0 373.86 113.57
  A 22.34 22.34 0.0 0 0 351.52 135.91
  A 22.34 22.34 0.0 0 0 373.86 158.25
  A 22.34 22.34 0.0 0 0 396.20 135.91"
/>
<path stroke="#805000" vector-effect="non-scaling-stroke" d="
  M 148.87 128.85
  A 7.34 7.34 0.0 0 0 141.53 121.51
  A 7.34 7.34 0.0 0 0 134.19 128.85
  A 7.34 7.34 0.0 0 0 141.53 136.19
  A 7.34 7.34 0.0 0 0 148.87 128.85"
/>
<path stroke="#805000" vector-effect="non-scaling-stroke" d="
  M 381.20 135.91
  A 7.34 7.34 0.0 0 0 373.86 128.57
  A 7.34 7.34 0.0 0 0 366.52 135.91
  A 7.34 7.34 0.0 0 0 373.86 143.25
  A 7.34 7.34 0.0 0 0 381.20 135.91"
/>
<path stroke="#805000" vector-effect="non-scaling-stroke" d="
  M 263.86 173.56
  A 7.34 7.34 0.0 0 0 256.52 166.22
  A 7.34 7.34 0.0 0 0 249.18 173.56
  A 7.34 7.34 0.0 0 0 256.52 180.90
  A 7.34 7.34 0.0 0 0 263.86 173.56"
/>
<path stroke="#6a1818" vector-effect="non-scaling-stroke" d="
  M 149.15 214.39
  C 158.40 224.60 174.37 224.64 182.91 214.19
  C 192.37 202.63 188.68 186.16 175.31 179.71"
/>
<path stroke="#782a28" vector-effect="non-scaling-stroke" d="
  M 175.31 179.71
  C 165.17 175.09 152.44 178.75 147.02 188.21
  Q 139.24 201.75 149.15 214.39"
/>
<path stroke="#e14140" vector-effect="non-scaling-stroke" d="
  M 175.31 179.71
  C 177.99 196.16 166.28 212.94 149.15 214.39"
/>
<path stroke="#6a1818" vector-effect="non-scaling-stroke" d="
  M 382.23 216.33
  Q 391.51 226.05 403.59 223.53
  C 424.49 219.18 427.69 191.37 408.74 181.84"
/>
<path stroke="#782a28" vector-effect="non-scaling-stroke" d="
  M 408.74 181.84
  C 386.59 171.79 367.38 197.54 382.23 216.33"
/>
<path stroke="#e14140" vector-effect="non-scaling-stroke" d="
  M 408.74 181.84
  C 408.68 184.60 409.04 187.54 408.67 190.05
  C 406.70 203.36 396.58 215.47 382.23 216.33"
/>
<path stroke="#805000" vector-effect="non-scaling-stroke" d="
  M 333.37 213.11
  A 7.34 7.34 0.0 0 0 326.03 205.77
  A 7.34 7.34 0.0 0 0 318.69 213.11
  A 7.34 7.34 0.0 0 0 326.03 220.45
  A 7.34 7.34 0.0 0 0 333.37 213.11"
/>
<path stroke="#805000" vector-effect="non-scaling-stroke" d="
  M 97.30 219.11
  A 7.34 7.34 0.0 0 0 89.96 211.77
  A 7.34 7.34 0.0 0 0 82.62 219.11
  A 7.34 7.34 0.0 0 0 89.96 226.45
  A 7.34 7.34 0.0 0 0 97.30 219.11"
/>
<path stroke="#807041" vector-effect="non-scaling-stroke" d="
  M 117.65 300.59
  A 22.34 22.34 0.0 0 0 95.31 278.25
  A 22.34 22.34 0.0 0 0 72.97 300.59
  A 22.34 22.34 0.0 0 0 95.31 322.93
  A 22.34 22.34 0.0 0 0 117.65 300.59"
/>
<path stroke="#805000" vector-effect="non-scaling-stroke" d="
  M 182.67 289.62
  A 7.34 7.34 0.0 0 0 175.33 282.28
  A 7.34 7.34 0.0 0 0 167.99 289.62
  A 7.34 7.34 0.0 0 0 175.33 296.96
  A 7.34 7.34 0.0 0 0 182.67 289.62"
/>
<path stroke="#805000" vector-effect="non-scaling-stroke" d="
  M 102.65 300.59
  A 7.34 7.34 0.0 0 0 95.31 293.25
  A 7.34 7.34 0.0 0 0 87.97 300.59
  A 7.34 7.34 0.0 0 0 95.31 307.93
  A 7.34 7.34 0.0 0 0 102.65 300.59"
/>
<path stroke="#807041" vector-effect="non-scaling-stroke" d="
  M 271.41 400.12
  A 37.19 37.19 0.0 0 0 234.22 362.93
  A 37.19 37.19 0.0 0 0 197.03 400.12
  A 37.19 37.19 0.0 0 0 234.22 437.31
  A 37.19 37.19 0.0 0 0 271.41 400.12"
/>
<path stroke="#805000" vector-effect="non-scaling-stroke" d="
  M 263.86 330.32
  A 7.34 7.34 0.0 0 0 256.52 322.98
  A 7.34 7.34 0.0 0 0 249.18 330.32
  A 7.34 7.34 0.0 0 0 256.52 337.66
  A 7.34 7.34 0.0 0 0 263.86 330.32"
/>
<path stroke="#6a1818" vector-effect="non-scaling-stroke" d="
  M 124.74 367.59
  Q 134.02 377.20 146.02 374.66
  C 166.60 370.32 170.25 342.71 151.39 333.12"
/>
<path stroke="#782a28" vector-effect="non-scaling-stroke" d="
  M 151.39 333.12
  Q 142.44 328.72 133.03 332.61
  C 118.60 338.58 115.20 355.67 124.74 367.59"
/>
<path stroke="#e14140" vector-effect="non-scaling-stroke" d="
  M 151.39 333.12
  Q 151.19 334.86 151.29 338.24
  C 151.72 352.93 139.23 365.74 124.74 367.59"
/>
<path stroke="#6a1818" vector-effect="non-scaling-stroke" d="
  M 217.54 414.82
  C 229.27 427.70 250.18 423.25 255.47 406.69
  C 258.88 395.99 253.50 384.86 243.56 379.97"
/>
<path stroke="#782a28" vector-effect="non-scaling-stroke" d="
  M 243.56 379.97
  C 221.44 370.11 202.09 396.71 217.54 414.82"
/>
<path stroke="#e14140" vector-effect="non-scaling-stroke" d="
  M 243.56 379.97
  C 246.21 397.23 234.66 412.22 217.54 414.82"
/>
<path stroke="#805000" vector-effect="non-scaling-stroke" d="
  M 312.01 414.99
  A 7.34 7.34 0.0 0 0 304.67 407.65
  A 7.34 7.34 0.0 0 0 297.33 414.99
  A 7.34 7.34 0.0 0 0 304.67 422.33
  A 7.34 7.34 0.0 0 0 312.01 414.99"
/>
</g>
<path fill="#000000" d="
  M 248.63 0.00
  L 264.53 0.00
  Q 321.56 1.99 370.70 26.79
  Q 378.02 30.48 381.21 39.13
  Q 381.40 39.63 381.93 39.55
  Q 391.18 38.05 398.69 43.08
  C 464.48 87.12 505.83 158.40 512.00 237.89
  L 512.00 243.78
  Q 509.20 257.85 496.99 262.14
  Q 493.12 263.50 485.84 263.51
  Q 471.30 263.53 456.79 263.51
  Q 456.20 263.51 456.20 264.10
  Q 456.17 307.62 456.21 351.25
  C 456.23 363.39 447.62 373.17 435.59 374.11
  C 426.07 374.85 416.44 368.55 413.40 359.75
  Q 411.99 355.67 412.01 343.60
  Q 412.04 321.25 412.00 298.80
  Q 411.99 294.71 407.92 294.41
  L 406.95 294.34
  A 3.25 3.25 0.0 0 0 403.48 297.36
  C 403.14 302.46 403.54 307.74 402.32 312.15
  C 394.06 341.90 349.88 336.74 350.00 305.75
  Q 350.08 284.93 349.99 264.01
  Q 349.99 263.52 349.49 263.52
  L 270.03 263.52
  Q 269.55 263.52 269.79 263.93
  Q 324.69 359.05 379.50 454.23
  C 384.52 462.93 383.18 474.02 376.27 480.99
  Q 373.10 484.19 364.37 488.24
  Q 316.93 510.22 264.19 512.00
  L 248.70 512.00
  Q 192.79 510.04 142.92 485.25
  Q 135.29 481.46 131.67 472.90
  Q 131.46 472.40 130.92 472.49
  Q 121.89 473.91 114.38 468.85
  C 47.95 424.08 6.54 352.60 1.08 273.00
  Q 0.42 263.47 6.47 256.32
  A 0.50 0.50 0.0 0 0 6.47 255.68
  C 0.74 248.93 0.60 242.20 1.48 233.00
  Q 8.05 164.24 46.86 109.11
  Q 76.14 67.52 115.99 42.01
  Q 122.14 38.08 131.09 39.63
  Q 131.64 39.73 131.83 39.20
  Q 135.00 30.56 141.84 27.06
  Q 190.78 2.02 248.63 0.00
  Z
  M 361.06 38.81
  C 295.34 7.09 216.51 6.84 150.90 39.35
  C 144.07 42.74 144.53 47.05 148.09 53.18
  Q 151.70 59.41 155.23 65.56
  A 0.45 0.45 0.0 0 0 155.88 65.70
  C 163.67 59.92 172.45 53.85 181.10 50.63
  C 191.50 46.75 203.00 46.16 214.01 45.23
  C 224.93 44.31 238.66 38.73 250.75 37.50
  C 267.30 35.80 281.47 42.86 298.29 45.02
  C 311.02 46.65 323.11 46.70 335.09 51.92
  C 342.42 55.10 350.26 60.66 357.22 65.67
  A 0.42 0.42 0.0 0 0 357.83 65.54
  Q 361.80 58.69 365.76 51.78
  C 369.40 45.43 367.40 41.87 361.06 38.81
  Z
  M 199.67 157.61
  C 193.68 160.29 190.83 157.22 187.89 152.11
  Q 169.10 119.53 150.27 86.96
  Q 150.01 86.51 149.55 86.73
  L 134.54 93.98
  Q 124.27 99.24 117.24 109.00
  C 111.22 117.36 105.46 125.68 98.33 133.15
  C 93.09 138.64 86.57 144.64 82.70 150.06
  C 76.38 158.91 74.26 169.03 71.33 179.32
  C 68.45 189.46 64.40 198.04 59.85 207.86
  Q 53.67 221.22 55.57 236.04
  L 56.47 248.02
  Q 56.51 248.51 57.00 248.51
  L 242.98 248.51
  Q 243.50 248.51 243.24 248.06
  Q 225.23 216.60 207.09 185.43
  Q 203.63 179.49 209.55 174.90
  Q 214.08 172.82 217.42 175.07
  Q 219.12 176.22 221.70 180.67
  Q 228.24 192.00 235.00 203.68
  L 256.36 240.68
  A 0.20 0.20 0.0 0 0 256.71 240.68
  L 349.86 79.35
  A 0.48 0.47 32.6 0 0 349.72 78.73
  C 339.50 71.39 329.69 63.96 316.85 62.18
  Q 312.11 61.52 299.49 60.37
  C 288.16 59.34 276.67 55.22 265.04 53.08
  C 250.14 50.32 237.37 56.21 223.04 58.95
  C 215.80 60.33 207.54 60.85 199.74 61.58
  C 185.01 62.96 174.73 70.61 163.18 78.82
  A 0.27 0.27 0.0 0 0 163.10 79.17
  Q 182.08 112.04 200.99 144.80
  C 203.90 149.84 204.90 154.00 199.67 157.61
  Z
  M 120.47 57.04
  C 60.23 98.77 21.71 165.08 16.16 238.34
  C 15.62 245.54 18.26 248.39 25.68 248.50
  Q 33.26 248.60 40.90 248.48
  Q 41.43 248.47 41.38 247.95
  Q 40.73 240.36 40.27 232.75
  C 39.27 216.16 45.33 203.00 52.07 188.45
  C 56.00 179.97 58.17 170.94 60.67 161.98
  Q 65.02 146.37 76.15 134.65
  C 83.32 127.11 91.31 119.71 97.20 111.19
  Q 104.41 100.75 109.68 94.44
  C 117.77 84.76 130.47 79.02 142.18 73.60
  A 0.28 0.28 0.0 0 0 142.30 73.20
  Q 138.30 66.14 134.17 59.12
  C 130.49 52.86 126.22 53.06 120.47 57.04
  Z
  M 496.85 238.00
  C 491.20 163.89 451.76 97.24 390.43 55.56
  C 384.97 51.85 381.07 55.35 378.20 60.27
  Q 374.45 66.71 370.82 73.05
  A 0.48 0.48 0.0 0 0 371.05 73.73
  C 380.02 77.62 389.74 82.24 396.89 88.25
  C 406.98 96.75 414.51 110.22 421.02 117.98
  Q 424.01 121.54 435.65 133.11
  Q 448.15 145.52 452.86 163.45
  C 455.08 171.92 457.29 180.22 460.84 188.34
  C 467.55 203.65 473.81 215.47 472.73 232.99
  Q 472.26 240.44 471.70 247.95
  Q 471.66 248.48 472.19 248.49
  Q 480.17 248.58 488.16 248.49
  C 495.20 248.41 497.37 244.91 496.85 238.00
  Z
  M 276.80 235.90
  L 269.70 248.18
  A 0.23 0.22 -75.0 0 0 269.89 248.52
  Q 344.95 248.51 419.92 248.52
  Q 423.67 248.52 425.45 249.41
  C 430.10 251.74 430.39 259.34 426.29 262.03
  C 422.47 264.53 413.40 263.53 408.58 263.52
  L 365.30 263.52
  A 0.28 0.27 -90.0 0 0 365.03 263.80
  Q 364.98 283.61 365.03 303.48
  Q 365.04 308.02 365.74 309.96
  C 369.41 320.23 384.75 318.84 387.70 308.82
  C 389.07 304.16 387.70 298.62 388.76 294.11
  C 390.92 284.93 399.23 279.00 408.65 279.14
  Q 421.68 280.97 425.62 291.61
  Q 427.07 295.50 427.04 304.07
  Q 426.98 327.66 426.95 351.25
  C 426.94 359.15 437.05 362.42 440.41 355.14
  Q 441.20 353.43 441.20 349.83
  Q 441.20 303.70 441.19 257.57
  C 441.19 247.36 448.18 248.60 455.92 248.51
  Q 456.39 248.50 456.45 248.03
  Q 458.36 232.21 457.85 225.75
  C 456.75 211.64 449.29 201.36 444.47 187.94
  C 441.77 180.43 439.96 172.70 437.68 165.05
  C 433.32 150.39 423.82 142.43 411.79 130.20
  Q 407.54 125.89 398.24 112.03
  C 389.47 98.96 378.89 93.45 364.01 87.03
  Q 363.80 86.76 363.57 86.67
  Q 363.08 86.46 362.82 86.92
  L 276.80 235.90
  Z
  M 142.10 438.36
  C 128.37 432.12 116.74 426.70 106.99 414.04
  Q 100.88 406.10 95.04 397.96
  C 89.72 390.54 82.49 384.15 76.22 377.52
  Q 64.84 365.51 60.53 349.49
  Q 59.55 345.85 56.88 336.66
  C 54.03 326.86 50.11 318.97 45.60 308.91
  C 38.90 293.96 40.04 280.05 41.37 264.07
  Q 41.41 263.55 40.89 263.54
  Q 33.38 263.45 25.88 263.52
  C 19.98 263.57 15.61 265.47 16.04 272.00
  C 20.91 346.07 60.38 413.70 121.50 455.65
  C 127.60 459.84 131.32 457.78 134.83 451.77
  Q 138.61 445.30 142.27 438.88
  A 0.37 0.37 0.0 0 0 142.10 438.36
  Z
  M 118.73 404.95
  Q 125.80 414.12 137.23 419.53
  Q 143.47 422.49 149.72 425.35
  Q 150.01 425.49 150.17 425.21
  L 243.17 264.14
  Q 243.50 263.57 242.84 263.56
  L 200.36 263.53
  L 57.03 263.52
  Q 56.51 263.52 56.46 264.04
  Q 55.66 272.38 55.24 280.76
  C 54.78 290.18 56.79 296.95 60.90 306.31
  C 64.02 313.45 67.56 320.54 69.83 327.76
  C 74.40 342.29 76.15 355.52 87.10 367.15
  C 94.47 374.97 102.69 382.58 108.66 391.09
  Q 115.08 400.23 118.73 404.95
  Z
  M 246.54 288.32
  L 163.19 432.69
  Q 163.00 433.03 163.32 433.26
  L 172.12 439.27
  Q 178.25 443.78 184.97 446.83
  C 190.08 449.15 192.78 451.26 191.38 457.09
  Q 187.50 464.71 179.15 460.85
  C 170.87 457.03 163.17 451.54 155.76 446.26
  A 0.32 0.32 0.0 0 0 155.30 446.36
  Q 151.26 453.30 147.25 460.30
  C 143.65 466.58 145.71 470.14 151.95 473.16
  C 218.30 505.22 295.57 504.74 361.78 472.86
  C 368.79 469.49 368.69 465.22 364.97 458.81
  Q 361.37 452.61 357.90 446.58
  Q 357.57 446.01 357.04 446.40
  C 349.04 452.29 340.23 458.41 331.26 461.59
  C 317.10 466.61 300.35 465.24 287.99 468.73
  C 275.08 472.38 262.58 475.84 249.04 474.29
  C 240.42 473.31 228.40 469.56 218.17 467.36
  C 213.20 466.30 210.39 464.48 210.39 459.20
  C 211.17 454.29 214.76 451.68 219.58 452.49
  C 227.82 453.86 235.93 456.05 244.04 458.08
  Q 256.90 461.29 269.71 457.84
  Q 288.52 452.77 294.23 452.21
  Q 304.12 451.26 314.00 450.25
  C 328.59 448.77 338.33 441.29 349.81 433.23
  Q 350.08 433.03 349.92 432.74
  L 256.79 271.45
  A 0.29 0.29 0.0 0 0 256.29 271.45
  L 246.54 288.32
  Z"
/>
<path fill="#ffa000" d="
  M 150.90 39.35
  C 216.51 6.84 295.34 7.09 361.06 38.81
  C 367.40 41.87 369.40 45.43 365.76 51.78
  Q 361.80 58.69 357.83 65.54
  A 0.42 0.42 0.0 0 1 357.22 65.67
  C 350.26 60.66 342.42 55.10 335.09 51.92
  C 323.11 46.70 311.02 46.65 298.29 45.02
  C 281.47 42.86 267.30 35.80 250.75 37.50
  C 238.66 38.73 224.93 44.31 214.01 45.23
  C 203.00 46.16 191.50 46.75 181.10 50.63
  C 172.45 53.85 163.67 59.92 155.88 65.70
  A 0.45 0.45 0.0 0 1 155.23 65.56
  Q 151.70 59.41 148.09 53.18
  C 144.53 47.05 144.07 42.74 150.90 39.35
  Z"
/>
<path fill="#ffe082" d="
  M 316.85 62.18
  L 312.81 69.29
  C 292.22 66.16 277.75 88.96 291.62 105.86
  L 264.60 152.69
  C 240.46 144.09 223.05 174.77 242.47 190.94
  L 235.00 203.68
  Q 228.24 192.00 221.70 180.67
  Q 219.12 176.22 217.42 175.07
  Q 214.08 172.82 209.55 174.90
  L 199.67 157.61
  C 204.90 154.00 203.90 149.84 200.99 144.80
  Q 182.08 112.04 163.10 79.17
  A 0.27 0.27 0.0 0 1 163.18 78.82
  C 174.73 70.61 185.01 62.96 199.74 61.58
  C 207.54 60.85 215.80 60.33 223.04 58.95
  C 237.37 56.21 250.14 50.32 265.04 53.08
  C 276.67 55.22 288.16 59.34 299.49 60.37
  Q 312.11 61.52 316.85 62.18
  Z
  M 265.60 99.11
  A 37.19 37.19 0.0 0 0 228.41 61.92
  A 37.19 37.19 0.0 0 0 191.22 99.11
  A 37.19 37.19 0.0 0 0 228.41 136.30
  A 37.19 37.19 0.0 0 0 265.60 99.11
  Z"
/>
<path fill="#ffa000" d="
  M 16.16 238.34
  C 21.71 165.08 60.23 98.77 120.47 57.04
  C 126.22 53.06 130.49 52.86 134.17 59.12
  Q 138.30 66.14 142.30 73.20
  A 0.28 0.28 0.0 0 1 142.18 73.60
  C 130.47 79.02 117.77 84.76 109.68 94.44
  Q 104.41 100.75 97.20 111.19
  C 91.31 119.71 83.32 127.11 76.15 134.65
  Q 65.02 146.37 60.67 161.98
  C 58.17 170.94 56.00 179.97 52.07 188.45
  C 45.33 203.00 39.27 216.16 40.27 232.75
  Q 40.73 240.36 41.38 247.95
  Q 41.43 248.47 40.90 248.48
  Q 33.26 248.60 25.68 248.50
  C 18.26 248.39 15.62 245.54 16.16 238.34
  Z"
/>
<path fill="#ffa000" d="
  M 390.43 55.56
  C 451.76 97.24 491.20 163.89 496.85 238.00
  C 497.37 244.91 495.20 248.41 488.16 248.49
  Q 480.17 248.58 472.19 248.49
  Q 471.66 248.48 471.70 247.95
  Q 472.26 240.44 472.73 232.99
  C 473.81 215.47 467.55 203.65 460.84 188.34
  C 457.29 180.22 455.08 171.92 452.86 163.45
  Q 448.15 145.52 435.65 133.11
  Q 424.01 121.54 421.02 117.98
  C 414.51 110.22 406.98 96.75 396.89 88.25
  C 389.74 82.24 380.02 77.62 371.05 73.73
  A 0.48 0.48 0.0 0 1 370.82 73.05
  Q 374.45 66.71 378.20 60.27
  C 381.07 55.35 384.97 51.85 390.43 55.56
  Z"
/>
<path fill="#000000" d="
  M 265.60 99.11
  A 37.19 37.19 0.0 0 1 228.41 136.30
  A 37.19 37.19 0.0 0 1 191.22 99.11
  A 37.19 37.19 0.0 0 1 228.41 61.92
  A 37.19 37.19 0.0 0 1 265.60 99.11
  Z
  M 211.70 113.82
  C 220.00 122.82 233.90 123.95 242.86 115.96
  C 255.03 105.11 252.48 86.60 238.12 79.15
  C 226.23 73.38 212.26 79.07 207.63 91.47
  Q 203.27 103.14 211.70 113.82
  Z"
/>
<path fill="#ffb300" d="
  M 316.85 62.18
  C 329.69 63.96 339.50 71.39 349.72 78.73
  A 0.48 0.47 32.6 0 1 349.86 79.35
  L 256.71 240.68
  A 0.20 0.20 0.0 0 1 256.36 240.68
  L 235.00 203.68
  L 242.47 190.94
  C 253.22 199.32 268.78 196.70 275.56 185.24
  C 282.77 173.03 277.66 157.97 264.60 152.69
  L 291.62 105.86
  C 308.61 125.50 339.85 105.15 328.69 81.61
  Q 324.21 72.15 312.81 69.29
  L 316.85 62.18
  Z"
/>
<path fill="#000000" d="
  M 312.81 69.29
  Q 324.21 72.15 328.69 81.61
  C 339.85 105.15 308.61 125.50 291.62 105.86
  C 277.75 88.96 292.22 66.16 312.81 69.29
  Z
  M 315.93 91.32
  A 7.34 7.34 0.0 0 0 308.59 83.98
  A 7.34 7.34 0.0 0 0 301.25 91.32
  A 7.34 7.34 0.0 0 0 308.59 98.66
  A 7.34 7.34 0.0 0 0 315.93 91.32
  Z"
/>
<path fill="#ef5350" d="
  M 238.12 79.15
  Q 238.19 81.84 238.14 84.39
  C 237.92 97.21 230.01 107.51 218.39 112.18
  C 216.35 113.00 213.96 113.36 211.70 113.82
  Q 203.27 103.14 207.63 91.47
  C 212.26 79.07 226.23 73.38 238.12 79.15
  Z"
/>
<path fill="#d32f2f" d="
  M 238.12 79.15
  C 252.48 86.60 255.03 105.11 242.86 115.96
  C 233.90 123.95 220.00 122.82 211.70 113.82
  C 213.96 113.36 216.35 113.00 218.39 112.18
  C 230.01 107.51 237.92 97.21 238.14 84.39
  Q 238.19 81.84 238.12 79.15
  Z"
/>
<circle fill="#ffa000" cx="308.59" cy="91.32" r="7.34"/>
<path fill="#ffb300" d="
  M 199.67 157.61
  L 209.55 174.90
  Q 203.63 179.49 207.09 185.43
  Q 225.23 216.60 243.24 248.06
  Q 243.50 248.51 242.98 248.51
  L 57.00 248.51
  Q 56.51 248.51 56.47 248.02
  L 55.57 236.04
  L 75.12 235.84
  Q 81.37 241.31 89.25 241.47
  Q 98.25 241.65 105.17 235.71
  Q 130.13 236.47 155.28 235.66
  Q 166.06 238.43 176.91 235.53
  Q 190.46 237.94 198.07 227.79
  Q 203.23 220.91 201.35 211.92
  Q 208.46 185.41 187.04 169.18
  Q 182.09 165.43 174.37 163.49
  L 160.90 140.08
  Q 167.13 128.57 160.86 117.64
  Q 154.74 106.95 141.44 106.37
  L 134.54 93.98
  L 149.55 86.73
  Q 150.01 86.51 150.27 86.96
  Q 169.10 119.53 187.89 152.11
  C 190.83 157.22 193.68 160.29 199.67 157.61
  Z"
/>
<path fill="#ffe082" d="
  M 364.01 87.03
  Q 373.61 102.36 386.41 114.59
  C 395.47 123.25 401.32 131.07 404.76 143.02
  Q 408.17 154.81 411.75 166.79
  Q 392.25 160.55 376.97 171.93
  C 363.58 181.90 358.50 199.54 364.31 214.97
  Q 369.19 227.95 383.05 235.61
  Q 355.66 236.55 328.55 235.64
  Q 340.32 233.12 345.37 224.24
  C 354.71 207.81 340.91 188.10 322.50 191.03
  C 308.44 193.27 300.03 207.97 305.30 221.35
  Q 309.70 232.54 323.49 235.69
  L 276.80 235.90
  L 362.82 86.92
  Q 363.08 86.46 363.57 86.67
  Q 363.80 86.76 364.01 87.03
  Z
  M 396.20 135.91
  A 22.34 22.34 0.0 0 0 373.86 113.57
  A 22.34 22.34 0.0 0 0 351.52 135.91
  A 22.34 22.34 0.0 0 0 373.86 158.25
  A 22.34 22.34 0.0 0 0 396.20 135.91
  Z"
/>
<path fill="#ffb300" d="
  M 364.01 87.03
  C 378.89 93.45 389.47 98.96 398.24 112.03
  Q 407.54 125.89 411.79 130.20
  C 423.82 142.43 433.32 150.39 437.68 165.05
  C 439.96 172.70 441.77 180.43 444.47 187.94
  C 449.29 201.36 456.75 211.64 457.85 225.75
  Q 458.36 232.21 456.45 248.03
  Q 456.39 248.50 455.92 248.51
  C 448.18 248.60 441.19 247.36 441.19 257.57
  Q 441.20 303.70 441.20 349.83
  Q 441.20 353.43 440.41 355.14
  C 437.05 362.42 426.94 359.15 426.95 351.25
  Q 426.98 327.66 427.04 304.07
  Q 427.07 295.50 425.62 291.61
  Q 421.68 280.97 408.65 279.14
  L 408.58 263.52
  C 413.40 263.53 422.47 264.53 426.29 262.03
  C 430.39 259.34 430.10 251.74 425.45 249.41
  Q 423.67 248.52 419.92 248.52
  Q 344.95 248.51 269.89 248.52
  A 0.23 0.22 -75.0 0 1 269.70 248.18
  L 276.80 235.90
  L 323.49 235.69
  Q 325.89 234.93 328.55 235.64
  Q 355.66 236.55 383.05 235.61
  Q 390.69 239.01 399.18 238.99
  C 440.54 238.88 450.61 181.44 411.75 166.79
  Q 408.17 154.81 404.76 143.02
  C 401.32 131.07 395.47 123.25 386.41 114.59
  Q 373.61 102.36 364.01 87.03
  Z"
/>
<path fill="#ffe082" d="
  M 134.54 93.98
  L 141.44 106.37
  Q 128.81 107.36 122.90 116.54
  C 116.90 125.86 118.22 137.95 126.61 145.42
  C 137.50 155.12 153.17 152.21 160.90 140.08
  L 174.37 163.49
  C 127.21 155.01 110.12 219.40 155.28 235.66
  Q 130.13 236.47 105.17 235.71
  Q 114.77 225.16 111.54 213.38
  C 104.66 188.38 68.49 192.94 67.55 218.96
  Q 67.21 228.41 75.12 235.84
  L 55.57 236.04
  Q 53.67 221.22 59.85 207.86
  C 64.40 198.04 68.45 189.46 71.33 179.32
  C 74.26 169.03 76.38 158.91 82.70 150.06
  C 86.57 144.64 93.09 138.64 98.33 133.15
  C 105.46 125.68 111.22 117.36 117.24 109.00
  Q 124.27 99.24 134.54 93.98
  Z"
/>
<path fill="#000000" d="
  M 141.44 106.37
  Q 154.74 106.95 160.86 117.64
  Q 167.13 128.57 160.90 140.08
  C 153.17 152.21 137.50 155.12 126.61 145.42
  C 118.22 137.95 116.90 125.86 122.90 116.54
  Q 128.81 107.36 141.44 106.37
  Z
  M 148.87 128.85
  A 7.34 7.34 0.0 0 0 141.53 121.51
  A 7.34 7.34 0.0 0 0 134.19 128.85
  A 7.34 7.34 0.0 0 0 141.53 136.19
  A 7.34 7.34 0.0 0 0 148.87 128.85
  Z"
/>
<path fill="#000000" d="
  M 396.20 135.91
  A 22.34 22.34 0.0 0 1 373.86 158.25
  A 22.34 22.34 0.0 0 1 351.52 135.91
  A 22.34 22.34 0.0 0 1 373.86 113.57
  A 22.34 22.34 0.0 0 1 396.20 135.91
  Z
  M 381.20 135.91
  A 7.34 7.34 0.0 0 0 373.86 128.57
  A 7.34 7.34 0.0 0 0 366.52 135.91
  A 7.34 7.34 0.0 0 0 373.86 143.25
  A 7.34 7.34 0.0 0 0 381.20 135.91
  Z"
/>
<circle fill="#ffa000" cx="141.53" cy="128.85" r="7.34"/>
<circle fill="#ffa000" cx="373.86" cy="135.91" r="7.34"/>
<path fill="#000000" d="
  M 264.60 152.69
  C 277.66 157.97 282.77 173.03 275.56 185.24
  C 268.78 196.70 253.22 199.32 242.47 190.94
  C 223.05 174.77 240.46 144.09 264.60 152.69
  Z
  M 263.86 173.56
  A 7.34 7.34 0.0 0 0 256.52 166.22
  A 7.34 7.34 0.0 0 0 249.18 173.56
  A 7.34 7.34 0.0 0 0 256.52 180.90
  A 7.34 7.34 0.0 0 0 263.86 173.56
  Z"
/>
<path fill="#000000" d="
  M 174.37 163.49
  Q 182.09 165.43 187.04 169.18
  Q 208.46 185.41 201.35 211.92
  Q 194.51 229.46 176.91 235.53
  Q 166.06 238.43 155.28 235.66
  C 110.12 219.40 127.21 155.01 174.37 163.49
  Z
  M 149.15 214.39
  C 158.40 224.60 174.37 224.64 182.91 214.19
  C 192.37 202.63 188.68 186.16 175.31 179.71
  C 165.17 175.09 152.44 178.75 147.02 188.21
  Q 139.24 201.75 149.15 214.39
  Z"
/>
<path fill="#000000" d="
  M 411.75 166.79
  C 450.61 181.44 440.54 238.88 399.18 238.99
  Q 390.69 239.01 383.05 235.61
  Q 369.19 227.95 364.31 214.97
  C 358.50 199.54 363.58 181.90 376.97 171.93
  Q 392.25 160.55 411.75 166.79
  Z
  M 382.23 216.33
  Q 391.51 226.05 403.59 223.53
  C 424.49 219.18 427.69 191.37 408.74 181.84
  C 386.59 171.79 367.38 197.54 382.23 216.33
  Z"
/>
<circle fill="#ffa000" cx="256.52" cy="173.56" r="7.34"/>
<path fill="#ef5350" d="
  M 175.31 179.71
  C 177.99 196.16 166.28 212.94 149.15 214.39
  Q 139.24 201.75 147.02 188.21
  C 152.44 178.75 165.17 175.09 175.31 179.71
  Z"
/>
<path fill="#d32f2f" d="
  M 175.31 179.71
  C 188.68 186.16 192.37 202.63 182.91 214.19
  C 174.37 224.64 158.40 224.60 149.15 214.39
  C 166.28 212.94 177.99 196.16 175.31 179.71
  Z"
/>
<path fill="#ef5350" d="
  M 408.74 181.84
  C 408.68 184.60 409.04 187.54 408.67 190.05
  C 406.70 203.36 396.58 215.47 382.23 216.33
  C 367.38 197.54 386.59 171.79 408.74 181.84
  Z"
/>
<path fill="#d32f2f" d="
  M 408.74 181.84
  C 427.69 191.37 424.49 219.18 403.59 223.53
  Q 391.51 226.05 382.23 216.33
  C 396.58 215.47 406.70 203.36 408.67 190.05
  C 409.04 187.54 408.68 184.60 408.74 181.84
  Z"
/>
<path fill="#000000" d="
  M 328.55 235.64
  Q 325.89 234.93 323.49 235.69
  Q 309.70 232.54 305.30 221.35
  C 300.03 207.97 308.44 193.27 322.50 191.03
  C 340.91 188.10 354.71 207.81 345.37 224.24
  Q 340.32 233.12 328.55 235.64
  Z
  M 333.37 213.11
  A 7.34 7.34 0.0 0 0 326.03 205.77
  A 7.34 7.34 0.0 0 0 318.69 213.11
  A 7.34 7.34 0.0 0 0 326.03 220.45
  A 7.34 7.34 0.0 0 0 333.37 213.11
  Z"
/>
<path fill="#000000" d="
  M 105.17 235.71
  Q 98.25 241.65 89.25 241.47
  Q 81.37 241.31 75.12 235.84
  Q 67.21 228.41 67.55 218.96
  C 68.49 192.94 104.66 188.38 111.54 213.38
  Q 114.77 225.16 105.17 235.71
  Z
  M 97.30 219.11
  A 7.34 7.34 0.0 0 0 89.96 211.77
  A 7.34 7.34 0.0 0 0 82.62 219.11
  A 7.34 7.34 0.0 0 0 89.96 226.45
  A 7.34 7.34 0.0 0 0 97.30 219.11
  Z"
/>
<circle fill="#ffa000" cx="326.03" cy="213.11" r="7.34"/>
<circle fill="#ffa000" cx="89.96" cy="219.11" r="7.34"/>
<path fill="#ffe082" d="
  M 201.35 211.92
  Q 203.23 220.91 198.07 227.79
  Q 190.46 237.94 176.91 235.53
  Q 194.51 229.46 201.35 211.92
  Z"
/>
<path fill="#ffa000" d="
  M 142.10 438.36
  A 0.37 0.37 0.0 0 1 142.27 438.88
  Q 138.61 445.30 134.83 451.77
  C 131.32 457.78 127.60 459.84 121.50 455.65
  C 60.38 413.70 20.91 346.07 16.04 272.00
  C 15.61 265.47 19.98 263.57 25.88 263.52
  Q 33.38 263.45 40.89 263.54
  Q 41.41 263.55 41.37 264.07
  C 40.04 280.05 38.90 293.96 45.60 308.91
  C 50.11 318.97 54.03 326.86 56.88 336.66
  Q 59.55 345.85 60.53 349.49
  Q 64.84 365.51 76.22 377.52
  C 82.49 384.15 89.72 390.54 95.04 397.96
  Q 100.88 406.10 106.99 414.04
  C 116.74 426.70 128.37 432.12 142.10 438.36
  Z"
/>
<path fill="#ffe082" d="
  M 200.36 263.53
  L 193.24 276.12
  C 180.90 261.03 156.80 266.22 153.26 285.84
  C 150.95 298.66 159.80 309.40 172.34 311.85
  L 165.32 324.34
  C 140.46 304.91 104.22 321.19 104.30 353.24
  C 104.33 368.84 114.22 382.31 128.74 387.94
  L 118.73 404.95
  Q 115.08 400.23 108.66 391.09
  C 102.69 382.58 94.47 374.97 87.10 367.15
  C 76.15 355.52 74.40 342.29 69.83 327.76
  C 67.56 320.54 64.02 313.45 60.90 306.31
  C 56.79 296.95 54.78 290.18 55.24 280.76
  Q 55.66 272.38 56.46 264.04
  Q 56.51 263.52 57.03 263.52
  L 200.36 263.53
  Z
  M 117.65 300.59
  A 22.34 22.34 0.0 0 0 95.31 278.25
  A 22.34 22.34 0.0 0 0 72.97 300.59
  A 22.34 22.34 0.0 0 0 95.31 322.93
  A 22.34 22.34 0.0 0 0 117.65 300.59
  Z"
/>
<path fill="#ffb300" d="
  M 200.36 263.53
  L 242.84 263.56
  Q 243.50 263.57 243.17 264.14
  L 150.17 425.21
  Q 150.01 425.49 149.72 425.35
  Q 143.47 422.49 137.23 419.53
  Q 125.80 414.12 118.73 404.95
  L 128.74 387.94
  C 168.33 401.62 196.70 351.52 165.32 324.34
  L 172.34 311.85
  Q 179.88 312.65 186.05 309.20
  C 198.31 302.35 200.96 288.04 193.24 276.12
  L 200.36 263.53
  Z"
/>
<path fill="#ffe082" d="
  M 408.58 263.52
  L 408.65 279.14
  C 399.23 279.00 390.92 284.93 388.76 294.11
  C 387.70 298.62 389.07 304.16 387.70 308.82
  C 384.75 318.84 369.41 320.23 365.74 309.96
  Q 365.04 308.02 365.03 303.48
  Q 364.98 283.61 365.03 263.80
  A 0.28 0.27 -90.0 0 1 365.30 263.52
  L 408.58 263.52
  Z"
/>
<path fill="#000000" d="
  M 193.24 276.12
  C 200.96 288.04 198.31 302.35 186.05 309.20
  Q 179.88 312.65 172.34 311.85
  C 159.80 309.40 150.95 298.66 153.26 285.84
  C 156.80 266.22 180.90 261.03 193.24 276.12
  Z
  M 182.67 289.62
  A 7.34 7.34 0.0 0 0 175.33 282.28
  A 7.34 7.34 0.0 0 0 167.99 289.62
  A 7.34 7.34 0.0 0 0 175.33 296.96
  A 7.34 7.34 0.0 0 0 182.67 289.62
  Z"
/>
<path fill="#ffb300" d="
  M 210.39 459.20
  L 191.38 457.09
  C 192.78 451.26 190.08 449.15 184.97 446.83
  Q 178.25 443.78 172.12 439.27
  C 183.40 439.84 196.27 444.08 204.50 445.94
  C 218.83 449.18 232.03 445.53 246.99 441.24
  Q 254.07 439.21 270.50 438.23
  Q 281.45 437.57 291.68 433.30
  Q 297.76 437.40 304.92 437.28
  C 320.92 437.01 331.22 421.20 325.23 406.43
  Q 320.62 395.05 306.88 392.60
  L 276.63 340.19
  Q 280.89 331.15 277.41 322.32
  Q 272.38 309.58 258.01 307.97
  L 246.54 288.32
  L 256.29 271.45
  A 0.29 0.29 0.0 0 1 256.79 271.45
  L 349.92 432.74
  Q 350.08 433.03 349.81 433.23
  C 338.33 441.29 328.59 448.77 314.00 450.25
  Q 304.12 451.26 294.23 452.21
  Q 288.52 452.77 269.71 457.84
  Q 256.90 461.29 244.04 458.08
  C 235.93 456.05 227.82 453.86 219.58 452.49
  C 214.76 451.68 211.17 454.29 210.39 459.20
  Z"
/>
<path fill="#000000" d="
  M 117.65 300.59
  A 22.34 22.34 0.0 0 1 95.31 322.93
  A 22.34 22.34 0.0 0 1 72.97 300.59
  A 22.34 22.34 0.0 0 1 95.31 278.25
  A 22.34 22.34 0.0 0 1 117.65 300.59
  Z
  M 102.65 300.59
  A 7.34 7.34 0.0 0 0 95.31 293.25
  A 7.34 7.34 0.0 0 0 87.97 300.59
  A 7.34 7.34 0.0 0 0 95.31 307.93
  A 7.34 7.34 0.0 0 0 102.65 300.59
  Z"
/>
<circle fill="#ffa000" cx="175.33" cy="289.62" r="7.34"/>
<path fill="#ffe082" d="
  M 246.54 288.32
  L 258.01 307.97
  C 243.65 307.42 232.38 319.24 234.50 333.65
  C 237.72 355.53 266.29 359.36 276.63 340.19
  L 306.88 392.60
  C 283.47 392.24 273.47 418.31 291.68 433.30
  Q 281.45 437.57 270.50 438.23
  Q 254.07 439.21 246.99 441.24
  C 232.03 445.53 218.83 449.18 204.50 445.94
  C 196.27 444.08 183.40 439.84 172.12 439.27
  L 163.32 433.26
  Q 163.00 433.03 163.19 432.69
  L 246.54 288.32
  Z
  M 271.41 400.12
  A 37.19 37.19 0.0 0 0 234.22 362.93
  A 37.19 37.19 0.0 0 0 197.03 400.12
  A 37.19 37.19 0.0 0 0 234.22 437.31
  A 37.19 37.19 0.0 0 0 271.41 400.12
  Z"
/>
<circle fill="#ffa000" cx="95.31" cy="300.59" r="7.34"/>
<path fill="#000000" d="
  M 258.01 307.97
  Q 272.38 309.58 277.41 322.32
  Q 280.89 331.15 276.63 340.19
  C 266.29 359.36 237.72 355.53 234.50 333.65
  C 232.38 319.24 243.65 307.42 258.01 307.97
  Z
  M 263.86 330.32
  A 7.34 7.34 0.0 0 0 256.52 322.98
  A 7.34 7.34 0.0 0 0 249.18 330.32
  A 7.34 7.34 0.0 0 0 256.52 337.66
  A 7.34 7.34 0.0 0 0 263.86 330.32
  Z"
/>
<path fill="#000000" d="
  M 165.32 324.34
  C 196.70 351.52 168.33 401.62 128.74 387.94
  C 114.22 382.31 104.33 368.84 104.30 353.24
  C 104.22 321.19 140.46 304.91 165.32 324.34
  Z
  M 124.74 367.59
  Q 134.02 377.20 146.02 374.66
  C 166.60 370.32 170.25 342.71 151.39 333.12
  Q 142.44 328.72 133.03 332.61
  C 118.60 338.58 115.20 355.67 124.74 367.59
  Z"
/>
<circle fill="#ffa000" cx="256.52" cy="330.32" r="7.34"/>
<path fill="#ef5350" d="
  M 151.39 333.12
  Q 151.19 334.86 151.29 338.24
  C 151.72 352.93 139.23 365.74 124.74 367.59
  C 115.20 355.67 118.60 338.58 133.03 332.61
  Q 142.44 328.72 151.39 333.12
  Z"
/>
<path fill="#d32f2f" d="
  M 151.39 333.12
  C 170.25 342.71 166.60 370.32 146.02 374.66
  Q 134.02 377.20 124.74 367.59
  C 139.23 365.74 151.72 352.93 151.29 338.24
  Q 151.19 334.86 151.39 333.12
  Z"
/>
<path fill="#000000" d="
  M 271.41 400.12
  A 37.19 37.19 0.0 0 1 234.22 437.31
  A 37.19 37.19 0.0 0 1 197.03 400.12
  A 37.19 37.19 0.0 0 1 234.22 362.93
  A 37.19 37.19 0.0 0 1 271.41 400.12
  Z
  M 217.54 414.82
  C 229.27 427.70 250.18 423.25 255.47 406.69
  C 258.88 395.99 253.50 384.86 243.56 379.97
  C 221.44 370.11 202.09 396.71 217.54 414.82
  Z"
/>
<path fill="#ef5350" d="
  M 243.56 379.97
  C 246.21 397.23 234.66 412.22 217.54 414.82
  C 202.09 396.71 221.44 370.11 243.56 379.97
  Z"
/>
<path fill="#d32f2f" d="
  M 243.56 379.97
  C 253.50 384.86 258.88 395.99 255.47 406.69
  C 250.18 423.25 229.27 427.70 217.54 414.82
  C 234.66 412.22 246.21 397.23 243.56 379.97
  Z"
/>
<path fill="#000000" d="
  M 306.88 392.60
  Q 320.62 395.05 325.23 406.43
  C 331.22 421.20 320.92 437.01 304.92 437.28
  Q 297.76 437.40 291.68 433.30
  C 273.47 418.31 283.47 392.24 306.88 392.60
  Z
  M 312.01 414.99
  A 7.34 7.34 0.0 0 0 304.67 407.65
  A 7.34 7.34 0.0 0 0 297.33 414.99
  A 7.34 7.34 0.0 0 0 304.67 422.33
  A 7.34 7.34 0.0 0 0 312.01 414.99
  Z"
/>
<circle fill="#ffa000" cx="304.67" cy="414.99" r="7.34"/>
<path fill="#ffa000" d="
  M 191.38 457.09
  L 210.39 459.20
  C 210.39 464.48 213.20 466.30 218.17 467.36
  C 228.40 469.56 240.42 473.31 249.04 474.29
  C 262.58 475.84 275.08 472.38 287.99 468.73
  C 300.35 465.24 317.10 466.61 331.26 461.59
  C 340.23 458.41 349.04 452.29 357.04 446.40
  Q 357.57 446.01 357.90 446.58
  Q 361.37 452.61 364.97 458.81
  C 368.69 465.22 368.79 469.49 361.78 472.86
  C 295.57 504.74 218.30 505.22 151.95 473.16
  C 145.71 470.14 143.65 466.58 147.25 460.30
  Q 151.26 453.30 155.30 446.36
  A 0.32 0.32 0.0 0 1 155.76 446.26
  C 163.17 451.54 170.87 457.03 179.15 460.85
  Q 187.50 464.71 191.38 457.09
  Z"
/>
</svg>
